<svg xmlns="http://www.w3.org/2000/svg" viewBox="-178.3 -167.1 1000 700">
<path d="M79.9 323.1c4 0 7.3 1.4 10.1 4.2 2.8 2.8 4.2 6.2 4.2 10.1V387H43.5c-4 0-7.3-1.4-10.1-4.2-2.8-2.8-4.2-6.2-4.2-10.1v-23.6h53.1v-11.7c0-.7-.2-1.2-.7-1.7-.5-.5-1-.7-1.7-.7H29.2v-11.9h50.7zm2.4 52V361H41.1v11.7c0 .7.2 1.2.7 1.7.5.5 1 .7 1.7.7h38.8zm114.7-52h12.7l-24 63.9H176l-21.5-47.5-20.3 47.5-.2-.1.1.1h-9.6l-25.1-63.9H112l17.3 42.4 18.4-42.4h13.6l19.5 42.4 16.2-42.4zm67.2 0c4 0 7.3 1.4 10.1 4.2 2.8 2.8 4.2 6.2 4.2 10.1V361h-53.1v11.7c0 .7.2 1.2.7 1.7.5.5 1 .7 1.7.7h50.7V387h-50.7c-4 0-7.3-1.4-10.1-4.2-2.8-2.8-4.2-6.2-4.2-10.1v-35.3c0-4 1.4-7.3 4.2-10.1 2.8-2.8 6.2-4.2 10.1-4.2h36.4zm-38.8 26h41.2v-11.7c0-.7-.2-1.2-.7-1.7-.5-.5-1-.7-1.7-.7h-36.4c-.7 0-1.2.2-1.7.7-.5.5-.7 1-.7 1.7v11.7zm129-11.6v2.4h-11.9v-2.4c0-.7-.2-1.2-.7-1.7-.5-.5-1-.7-1.7-.7h-36.4c-.7 0-1.2.2-1.7.7-.5.5-.7 1-.7 1.7v9.3c0 .7.2 1.2.7 1.7.5.5 1 .7 1.7.7h36.4c4 0 7.3 1.4 10.1 4.2 2.8 2.8 4.2 6.2 4.2 10.1v9.3c0 4-1.4 7.3-4.2 10.1-2.8 2.8-6.2 4.2-10.1 4.2h-36.4c-4 0-7.3-1.4-10.1-4.2-2.8-2.8-4.2-6.2-4.2-10.1v-2.4h11.9v2.4c0 .7.2 1.2.7 1.7.5.5 1 .7 1.7.7h36.4c.7 0 1.2-.2 1.7-.7.5-.5.7-1 .7-1.7v-9.3c0-.7-.2-1.2-.7-1.7-.5-.5-1-.7-1.7-.7h-36.4c-4 0-7.3-1.4-10.1-4.2-2.8-2.8-4.2-6.2-4.2-10.1v-9.3c0-4 1.4-7.3 4.2-10.1 2.8-2.8 6.2-4.2 10.1-4.2h36.4c4 0 7.3 1.4 10.1 4.2 2.8 2.7 4.2 6.1 4.2 10.1zm25.2-14.4H416c4 0 7.3 1.4 10.1 4.2 2.8 2.8 4.2 6.2 4.2 10.1v35.3c0 4-1.4 7.3-4.2 10.1-2.8 2.8-6.2 4.2-10.1 4.2h-36.4c-4 0-7.3-1.4-10.1-4.2-2.8-2.8-4.2-6.2-4.2-10.1v-35.3c0-4 1.4-7.3 4.2-10.1 2.8-2.8 6.2-4.2 10.1-4.2zM416 335h-36.4c-.7 0-1.2.2-1.7.7-.5.5-.7 1-.7 1.7v35.3c0 .7.2 1.2.7 1.7.5.5 1 .7 1.7.7H416c.7 0 1.2-.2 1.7-.7.5-.5.7-1 .7-1.7v-35.3c0-.7-.2-1.2-.7-1.7-.5-.4-1-.7-1.7-.7zm107.5-11.9c4 0 7.3 1.4 10.1 4.2 2.8 2.8 4.2 6.2 4.2 10.1V387H526v-49.6c0-.7-.2-1.2-.7-1.7-.5-.5-1.1-.7-1.8-.7h-25.2c-.7 0-1.2.2-1.7.7-.5.5-.7 1-.7 1.7V387H484v-49.6c0-.7-.2-1.2-.7-1.7-.5-.5-1-.7-1.7-.7h-25.3c-.7 0-1.2.2-1.7.7-.5.5-.7 1-.7 1.7V387H442v-63.9h81.5zm76.5 0c4 0 7.3 1.4 10.1 4.2 2.8 2.8 4.2 6.2 4.2 10.1V361h-53.1v11.7c0 .7.2 1.2.7 1.7.5.5 1 .7 1.7.7h50.7V387h-50.7c-4 0-7.3-1.4-10.1-4.2-2.8-2.8-4.2-6.2-4.2-10.1v-35.3c0-4 1.4-7.3 4.2-10.1 2.8-2.8 6.2-4.2 10.1-4.2H600zm-38.8 26h41.2v-11.7c0-.7-.2-1.2-.7-1.7-.5-.5-1-.7-1.7-.7h-36.4c-.7 0-1.2.2-1.7.7-.5.5-.7 1-.7 1.7v11.7z" fill="#494368"/><path fill="#FC60A8" d="M614.2 91l-150-137.6-21.1 23L568.1 91H75.4l125-114.7-21.1-23L29.3 91h-.1v90.7c0 41 39.5 74.4 88 74.4h92.5c48.5 0 88-33.4 88-74.4v-59.6h48v59.6c0 41 39.5 74.4 88 74.4h92.5c48.5 0 88-33.4 88-74.4V91z"/>
<!-- <g id="text"> -->
<!-- <text id="t1" x="35" y="200" font-size="80" font-family="HackGenNerd">犯人は</text> -->
<!-- <text id="t2" x="350" y="220" font-size="120" font-family="HackGenNerd">ヤス</text> -->
<!-- </g> -->
<g id="n1" transform="translate(-178.3 -167.1)" fill="black">
  <path id="犯人は" stroke="black" stroke-width="1"
        d="M 242.20,302.70
           C 242.62,302.08 243.19,301.69 243.92,301.53
             244.13,301.48 244.31,301.45 244.47,301.45
             244.99,301.45 245.48,301.64 245.95,302.00
             245.95,302.00 246.34,302.23 246.34,302.23
             246.97,302.70 247.34,303.32 247.47,304.08
             247.60,304.83 247.46,305.52 247.05,306.14
             244.91,309.11 242.36,312.11 239.39,315.12
             239.23,315.34 239.21,315.52 239.31,315.67
             241.50,319.68 242.99,323.90 243.80,328.33
             244.61,332.76 245.02,337.70 245.02,343.17
             245.02,356.71 243.48,365.54 240.41,369.66
             239.21,371.16 237.54,372.13 235.41,372.55
             233.48,372.91 231.21,373.09 228.61,373.09
             228.09,373.09 227.54,373.07 226.97,373.02
             226.19,373.02 225.51,372.74 224.94,372.19
             224.36,371.64 223.95,370.98 223.69,370.20
             223.69,370.20 223.58,369.94 223.38,369.42
             223.16,368.90 223.22,368.39 223.53,367.89
             223.84,367.40 224.29,367.18 224.86,367.23
             226.32,367.34 227.64,367.39 228.84,367.39
             230.35,367.39 231.73,367.31 232.98,367.16
             234.18,366.95 235.17,366.40 235.95,365.52
             238.09,362.65 239.16,355.18 239.16,343.09
             239.16,341.12 239.13,339.68 239.08,338.80
             239.08,338.75 239.05,338.71 239.00,338.69
             238.95,338.66 238.89,338.67 238.84,338.72
             234.52,344.50 229.96,349.24 225.17,352.94
             224.55,353.36 223.87,353.50 223.14,353.38
             222.41,353.24 221.79,352.89 221.27,352.31
             221.11,352.11 220.98,351.92 220.88,351.77
             220.46,351.35 220.25,350.83 220.25,350.20
             220.25,349.42 220.56,348.82 221.19,348.41
             224.31,346.22 227.41,343.48 230.48,340.20
             233.55,336.92 236.05,333.64 237.98,330.36
             238.14,330.15 238.19,329.95 238.14,329.73
             237.36,325.88 236.29,322.60 234.94,319.89
             234.83,319.68 234.68,319.66 234.47,319.81
             231.81,322.21 228.89,324.55 225.72,326.84
             225.09,327.31 224.39,327.50 223.61,327.39
             222.83,327.29 222.18,326.95 221.66,326.38
             221.66,326.38 221.60,326.32 221.50,326.22
             221.03,325.75 220.80,325.17 220.83,324.47
             220.86,323.76 221.16,323.20 221.73,322.78
             225.17,320.39 228.43,317.73 231.50,314.81
             231.71,314.66 231.73,314.50 231.58,314.34
             229.49,311.38 226.76,308.48 223.38,305.67
             222.80,305.26 222.52,304.71 222.52,304.03
             222.52,303.36 222.77,302.78 223.30,302.31
             223.92,301.79 224.62,301.53 225.41,301.53
             225.41,301.53 225.43,301.53 225.48,301.53
             226.27,301.53 226.94,301.77 227.52,302.23
             230.74,304.84 233.45,307.50 235.64,310.20
             235.80,310.41 235.95,310.44 236.11,310.28
             238.50,307.62 240.54,305.10 242.20,302.70 Z
           M 265.02,366.84
           C 265.02,366.84 281.89,366.84 281.89,366.84
             283.87,366.84 285.23,366.14 285.98,364.73
             286.74,363.33 287.25,360.46 287.52,356.14
             287.57,355.57 287.86,355.12 288.41,354.81
             288.96,354.50 289.52,354.48 290.09,354.73
             290.09,354.73 290.30,354.84 290.72,355.05
             291.45,355.36 292.05,355.86 292.52,356.53
             292.88,357.11 293.06,357.73 293.06,358.41
             293.06,363.15 292.07,366.87 290.09,369.58
             288.63,371.55 286.03,372.55 282.28,372.55
             282.28,372.55 264.62,372.55 264.62,372.55
             260.30,372.55 257.34,371.77 255.75,370.23
             254.16,368.70 253.38,365.78 253.38,361.45
             253.38,361.45 253.38,309.03 253.38,309.03
             253.38,308.30 253.64,307.67 254.19,307.12
             254.74,306.57 255.41,306.30 256.19,306.30
             256.19,306.30 285.17,306.30 285.17,306.30
             285.95,306.30 286.61,306.57 287.16,307.12
             287.71,307.67 287.98,308.30 287.98,309.03
             287.98,309.03 287.98,334.89 287.98,334.89
             287.98,336.71 287.72,338.09 287.20,339.03
             286.68,339.97 285.77,340.70 284.47,341.22
             282.64,341.84 278.66,342.16 272.52,342.16
             271.73,342.21 271.03,341.98 270.41,341.45
             269.78,340.93 269.34,340.28 269.08,339.50
             269.02,339.29 268.95,339.09 268.84,338.88
             268.63,338.25 268.72,337.67 269.11,337.12
             269.50,336.57 270.02,336.32 270.64,336.38
             273.14,336.43 275.20,336.45 276.81,336.45
             278.32,336.45 279.44,336.43 280.17,336.38
             280.95,336.38 281.47,336.27 281.73,336.06
             281.99,335.86 282.12,335.41 282.12,334.73
             282.12,334.73 282.12,312.39 282.12,312.39
             282.12,312.18 281.99,312.08 281.73,312.08
             281.73,312.08 259.62,312.08 259.62,312.08
             259.41,312.08 259.31,312.18 259.31,312.39
             259.31,312.39 259.31,361.53 259.31,361.53
             259.31,363.72 259.66,365.15 260.36,365.83
             261.07,366.51 262.62,366.84 265.02,366.84 Z
           M 335.97,303.48
           C 336.02,302.76 336.33,302.12 336.91,301.58
             337.48,301.03 338.16,300.75 338.94,300.75
             338.94,300.75 339.88,300.75 339.88,300.75
             340.66,300.75 341.29,301.03 341.78,301.58
             342.28,302.12 342.53,302.76 342.53,303.48
             342.53,303.48 342.53,303.80 342.53,304.42
             342.69,306.40 342.88,308.42 343.11,310.48
             343.35,312.54 343.83,315.30 344.56,318.77
             345.29,322.23 346.16,325.53 347.17,328.69
             348.19,331.84 349.61,335.30 351.44,339.08
             353.26,342.85 355.32,346.30 357.61,349.42
             359.90,352.55 362.79,355.57 366.28,358.48
             368.99,360.83 371.93,362.81 375.11,364.42
             375.79,364.79 376.12,365.36 376.12,366.14
             376.12,366.66 375.91,367.10 375.50,367.47
             375.24,367.73 375.00,368.02 374.80,368.33
             374.27,368.95 373.65,369.37 372.92,369.58
             372.66,369.63 372.40,369.66 372.14,369.66
             371.67,369.66 371.20,369.55 370.73,369.34
             366.83,367.21 363.23,364.63 359.95,361.61
             355.99,357.96 352.74,353.98 350.19,349.66
             347.63,345.34 345.55,341.14 343.94,337.08
             342.38,333.12 341.07,328.98 340.03,324.66
             340.03,324.66 340.00,324.66 339.95,324.66
             339.95,324.66 339.88,324.66 339.88,324.66
             335.29,345.28 325.45,360.12 310.34,369.19
             309.82,369.50 309.30,369.66 308.78,369.66
             308.57,369.66 308.36,369.63 308.16,369.58
             307.38,369.42 306.70,369.05 306.12,368.48
             306.12,368.48 305.86,368.22 305.34,367.70
             304.93,367.34 304.72,366.87 304.72,366.30
             304.72,365.57 305.00,365.02 305.58,364.66
             308.86,362.78 311.88,360.59 314.64,358.09
             318.08,354.97 320.89,351.87 323.08,348.80
             325.27,345.73 327.19,342.21 328.86,338.25
             330.52,334.29 331.77,330.83 332.61,327.86
             333.44,324.89 334.13,321.52 334.67,317.75
             335.22,313.97 335.55,311.14 335.66,309.27
             335.81,307.65 335.91,305.73 335.97,303.48 Z
           M 397.62,308.33
           C 397.73,307.55 398.05,306.91 398.59,306.42
             399.14,305.92 399.79,305.70 400.52,305.75
             400.52,305.75 402.08,305.91 402.08,305.91
             402.75,305.96 403.30,306.29 403.72,306.89
             404.13,307.48 404.24,308.12 404.03,308.80
             403.77,309.84 403.59,310.73 403.48,311.45
             402.55,315.67 401.66,321.03 400.83,327.52
             399.99,334.00 399.58,339.29 399.58,343.41
             399.58,347.21 399.79,350.70 400.20,353.88
             400.20,353.93 400.23,353.95 400.28,353.95
             400.33,353.95 400.36,353.93 400.36,353.88
             401.45,350.91 402.65,347.84 403.95,344.66
             404.16,344.14 404.52,343.81 405.05,343.69
             405.57,343.55 406.04,343.67 406.45,344.03
             407.23,344.61 407.62,345.34 407.62,346.22
             407.62,346.59 407.55,346.95 407.39,347.31
             404.73,354.81 403.09,360.00 402.47,362.86
             402.21,364.06 402.08,365.07 402.08,365.91
             402.08,365.91 402.08,366.04 402.08,366.30
             402.13,367.08 401.92,367.75 401.45,368.33
             400.98,368.90 400.36,369.24 399.58,369.34
             399.58,369.34 399.42,369.34 399.42,369.34
             399.42,369.34 399.32,369.34 399.11,369.34
             398.43,369.34 397.80,369.13 397.23,368.72
             396.55,368.25 396.14,367.62 395.98,366.84
             394.42,360.12 393.64,352.65 393.64,344.42
             393.64,342.23 393.72,339.88 393.88,337.36
             394.03,334.83 394.27,332.18 394.61,329.42
             394.95,326.66 395.25,324.39 395.52,322.59
             395.77,320.79 396.11,318.54 396.53,315.83
             396.95,313.12 397.18,311.56 397.23,311.14
             397.39,310.20 397.52,309.27 397.62,308.33 Z
           M 438.17,354.66
           C 438.17,354.66 438.17,353.90 438.17,352.39
             438.12,352.13 437.99,351.98 437.78,351.92
             435.38,351.14 432.80,350.75 430.05,350.75
             427.08,350.75 424.66,351.35 422.81,352.55
             420.97,353.75 420.05,355.26 420.05,357.08
             420.05,359.01 420.91,360.52 422.62,361.61
             424.34,362.70 426.66,363.25 429.58,363.25
             432.75,363.25 434.98,362.54 436.25,361.11
             437.53,359.67 438.17,357.52 438.17,354.66 Z
           M 457.70,356.77
           C 458.27,357.29 458.64,357.94 458.80,358.72
             458.80,358.72 458.80,358.88 458.80,359.19
             458.80,359.81 458.61,360.39 458.25,360.91
             458.25,360.91 457.86,361.45 457.86,361.45
             457.49,362.08 456.95,362.43 456.22,362.52
             455.49,362.59 454.84,362.39 454.27,361.92
             450.93,358.95 447.75,356.64 444.73,354.97
             444.52,354.81 444.42,354.87 444.42,355.12
             444.42,355.12 444.42,356.22 444.42,356.22
             444.42,357.94 444.20,359.54 443.75,361.03
             443.31,362.51 442.60,363.88 441.61,365.12
             440.62,366.38 439.19,367.36 437.31,368.09
             435.44,368.82 433.22,369.19 430.67,369.19
             425.41,369.19 421.35,368.17 418.48,366.14
             415.62,364.11 414.19,361.30 414.19,357.70
             414.19,354.27 415.64,351.40 418.56,349.11
             421.48,346.82 425.46,345.67 430.52,345.67
             433.02,345.67 435.36,345.88 437.55,346.30
             437.75,346.35 437.86,346.25 437.86,345.98
             437.34,333.28 437.08,326.77 437.08,326.45
             437.08,326.25 436.95,326.14 436.69,326.14
             433.51,326.25 431.11,326.30 429.50,326.30
             426.84,326.30 423.33,326.17 418.95,325.91
             418.17,325.91 417.52,325.62 417.00,325.05
             416.48,324.48 416.22,323.80 416.22,323.02
             416.22,323.02 416.22,322.47 416.22,322.47
             416.22,321.74 416.49,321.13 417.03,320.64
             417.58,320.14 418.22,319.92 418.95,319.97
             422.49,320.28 426.06,320.44 429.66,320.44
             431.27,320.44 433.61,320.39 436.69,320.28
             436.95,320.28 437.08,320.15 437.08,319.89
             437.08,319.89 437.08,310.44 437.08,310.44
             437.08,309.87 437.05,309.19 437.00,308.41
             436.95,307.68 437.16,307.04 437.62,306.50
             438.09,305.95 438.69,305.67 439.42,305.67
             439.42,305.67 441.14,305.67 441.14,305.67
             441.87,305.67 442.48,305.95 442.97,306.50
             443.47,307.04 443.69,307.68 443.64,308.41
             443.54,309.03 443.48,309.68 443.48,310.36
             443.43,311.82 443.35,314.87 443.25,319.50
             443.25,319.76 443.35,319.89 443.56,319.89
             447.21,319.63 450.75,319.19 454.19,318.56
             454.91,318.46 455.55,318.63 456.09,319.08
             456.64,319.52 456.92,320.10 456.92,320.83
             456.92,320.83 456.92,321.53 456.92,321.53
             456.92,322.31 456.66,323.01 456.14,323.61
             455.62,324.20 454.97,324.58 454.19,324.73
             450.96,325.15 447.41,325.49 443.56,325.75
             443.35,325.80 443.25,325.93 443.25,326.14
             443.25,328.48 443.56,335.75 444.19,347.94
             444.19,348.15 444.29,348.30 444.50,348.41
             448.72,350.12 453.12,352.91 457.70,356.77 Z" />
  <path id="ヤス" stroke="black" stroke-width="1"
        d="M 631.55,308.78
           C 632.48,308.54 633.38,308.42 634.23,308.42
             635.95,308.42 637.48,308.93 638.81,309.95
             639.82,310.65 640.45,311.59 640.69,312.77
             640.84,313.15 640.92,313.54 640.92,313.94
             640.92,314.64 640.72,315.34 640.33,316.05
             637.44,321.28 633.55,327.16 628.67,333.69
             623.79,340.21 619.16,345.85 614.78,350.61
             613.93,351.48 612.88,352.03 611.62,352.27
             610.38,352.50 609.20,352.34 608.11,351.78
             608.11,351.78 605.88,350.73 605.88,350.73
             605.02,350.34 604.53,349.66 604.41,348.69
             604.29,347.71 604.59,346.91 605.30,346.28
             609.43,342.45 613.63,337.92 617.89,332.69
             622.15,327.45 625.41,322.92 627.67,319.09
             627.75,319.01 627.75,318.93 627.67,318.86
             627.60,318.78 627.52,318.73 627.44,318.73
             622.44,319.60 607.48,322.57 582.56,327.64
             582.25,327.73 582.13,327.92 582.20,328.23
             590.48,358.46 595.41,376.16 596.97,381.31
             597.28,382.49 597.87,384.29 598.73,386.70
             599.12,387.81 599.04,388.83 598.48,389.77
             597.94,390.70 597.12,391.33 596.03,391.64
             596.03,391.64 592.98,392.34 592.98,392.34
             592.67,392.41 592.36,392.45 592.05,392.45
             591.27,392.45 590.56,392.22 589.94,391.75
             589.00,391.12 588.41,390.27 588.19,389.17
             587.72,386.90 587.25,384.98 586.78,383.42
             586.31,381.70 585.30,377.95 583.73,372.17
             582.17,366.39 580.25,359.38 577.98,351.14
             575.72,342.90 573.81,335.93 572.25,330.22
             572.16,329.84 571.97,329.68 571.66,329.75
             569.00,330.30 565.85,330.97 562.22,331.75
             558.59,332.53 555.51,333.18 552.97,333.69
             550.43,334.19 548.38,334.64 546.81,335.03
             545.64,335.26 544.57,335.09 543.59,334.50
             542.61,333.92 541.97,333.04 541.66,331.86
             541.66,331.86 541.08,329.64 541.08,329.64
             540.99,329.33 540.95,329.02 540.95,328.70
             540.95,328.00 541.15,327.33 541.55,326.70
             542.17,325.85 543.03,325.34 544.12,325.19
             545.84,324.95 548.46,324.59 551.97,324.12
             551.97,324.12 569.20,320.84 569.20,320.84
             569.52,320.84 569.63,320.65 569.55,320.27
             566.82,310.34 565.38,305.03 565.22,304.33
             564.35,301.83 563.77,300.11 563.45,299.17
             563.07,298.15 563.11,297.16 563.58,296.19
             564.05,295.21 564.79,294.60 565.80,294.36
             565.80,294.36 568.84,293.66 568.84,293.66
             569.16,293.59 569.43,293.55 569.67,293.55
             570.45,293.55 571.16,293.78 571.78,294.25
             572.72,294.88 573.30,295.73 573.53,296.83
             573.84,298.23 574.31,299.95 574.94,301.98
             574.94,301.98 579.39,318.50 579.39,318.50
             579.47,318.81 579.71,318.93 580.09,318.86
             610.88,313.00 627.55,309.75 630.14,309.12
             630.61,309.05 631.08,308.94 631.55,308.78 Z
           M 745.42,303.86
           C 745.96,303.78 746.47,303.73 746.94,303.73
             748.97,303.73 750.73,304.28 752.22,305.38
             753.07,306.00 753.60,306.86 753.80,307.95
             753.99,309.05 753.82,310.06 753.27,311.00
             752.88,311.78 752.57,312.45 752.33,313.00
             750.14,318.39 747.27,324.25 743.72,330.58
             740.16,336.90 736.39,342.64 732.41,347.80
             732.25,348.04 732.29,348.27 732.53,348.50
             743.07,357.56 753.73,368.31 764.52,380.73
             765.14,381.52 765.45,382.41 765.45,383.42
             765.45,384.76 764.98,385.85 764.05,386.70
             764.05,386.70 761.94,388.47 761.94,388.47
             761.16,389.18 760.30,389.53 759.36,389.53
             759.20,389.53 759.05,389.49 758.89,389.41
             757.80,389.33 756.90,388.86 756.20,388.00
             746.83,376.20 736.83,365.50 726.20,355.89
             725.89,355.73 725.61,355.77 725.38,356.00
             711.86,370.46 697.64,381.40 682.72,388.83
             681.62,389.37 680.45,389.52 679.20,389.28
             677.95,389.05 676.90,388.50 676.05,387.64
             676.05,387.64 674.17,385.66 674.17,385.66
             673.62,385.03 673.34,384.41 673.34,383.78
             673.34,383.54 673.38,383.31 673.47,383.08
             673.62,382.06 674.17,381.36 675.11,380.97
             683.62,377.22 691.80,372.34 699.66,366.33
             707.51,360.31 714.52,353.86 720.69,346.98
             724.83,342.37 728.78,336.94 732.53,330.69
             736.28,324.44 738.94,318.89 740.50,314.05
             740.57,313.73 740.45,313.58 740.14,313.58
             740.14,313.58 693.86,313.58 693.86,313.58
             691.83,313.58 689.17,313.70 685.89,313.94
             684.80,314.01 683.82,313.66 682.95,312.88
             682.10,312.09 681.67,311.16 681.67,310.06
             681.67,310.06 681.67,307.48 681.67,307.48
             681.67,306.32 682.10,305.38 682.95,304.67
             683.66,303.98 684.52,303.62 685.53,303.62
             685.61,303.62 685.73,303.66 685.89,303.73
             689.33,303.98 691.98,304.09 693.86,304.09
             693.86,304.09 740.14,304.09 740.14,304.09
             742.02,304.09 743.77,304.02 745.42,303.86 Z" />
</g>
</svg>
